<?xml version="1.0" encoding="UTF-8"?>
<!DOCTYPE svg PUBLIC "-//W3C//DTD SVG 1.1//EN" "http://www.w3.org/Graphics/SVG/1.1/DTD/svg11.dtd">
<!-- Creator: CorelDRAW 2019 (64-Bit) -->
<svg xmlns="http://www.w3.org/2000/svg" xml:space="preserve" width="122.967mm" height="40.885mm" version="1.1" style="shape-rendering:geometricPrecision; text-rendering:geometricPrecision; image-rendering:optimizeQuality; fill-rule:evenodd; clip-rule:evenodd"
viewBox="0 0 6656.55 2213.22"
 xmlns:xlink="http://www.w3.org/1999/xlink"
 xmlns:xodm="http://www.corel.com/coreldraw/odm/2003">
 <defs>
  <style type="text/css">
   <![CDATA[
    .fil0 {fill:#263E0E;fill-rule:nonzero}
    .fil1 {fill:#B4BF41;fill-rule:nonzero}
    .fil2 {fill:#B4BF41;fill-rule:nonzero}
   ]]>
  </style>
 </defs>
 <g id="Vrstva_x0020_1">
  <metadata id="CorelCorpID_0Corel-Layer"/>
  <path class="fil0" d="M3215.88 1306.05c-48.84,0 -96.06,-6.62 -141.67,-19.86 -45.6,-13.24 -82.23,-30.46 -109.89,-51.64l48.55 -107.69c26.48,19.42 57.96,35.01 94.45,46.78 36.49,11.77 72.97,17.65 109.45,17.65 40.6,0 70.62,-6.03 90.03,-18.1 19.42,-12.06 29.13,-28.09 29.13,-48.1 0,-14.71 -5.74,-26.92 -17.21,-36.63 -11.47,-9.71 -26.18,-17.51 -44.13,-23.39 -17.95,-5.88 -42.22,-12.36 -72.82,-19.42 -47.07,-11.18 -85.62,-22.36 -115.63,-33.55 -30.01,-11.18 -55.76,-29.13 -77.24,-53.84 -21.48,-24.72 -32.22,-57.67 -32.22,-98.86 0,-35.9 9.71,-68.41 29.13,-97.54 19.42,-29.12 48.7,-52.22 87.83,-69.29 39.13,-17.06 86.94,-25.59 143.44,-25.59 39.42,0 77.97,4.7 115.63,14.12 37.66,9.41 70.62,22.95 98.86,40.6l-44.13 108.57c-57.08,-32.36 -114.16,-48.55 -171.24,-48.55 -40.01,0 -69.58,6.47 -88.71,19.42 -19.13,12.94 -28.68,30.01 -28.68,51.19 0,21.18 11.03,36.92 33.1,47.22 22.07,10.3 55.76,20.45 101.07,30.46 47.07,11.18 85.62,22.36 115.63,33.54 30.01,11.18 55.76,28.84 77.24,52.96 21.48,24.13 32.21,56.79 32.21,97.97 0,35.31 -9.85,67.53 -29.57,96.65 -19.72,29.13 -49.28,52.23 -88.71,69.29 -39.43,17.06 -87.39,25.6 -143.88,25.6z"/>
  <polygon id="1" class="fil0" points="3695.17,794.1 3497.45,794.1 3497.45,677.58 4035.89,677.58 4035.89,794.1 3838.17,794.1 3838.17,1295.46 3695.17,1295.46 "/>
  <path id="2" class="fil0" d="M4488.7 1163.06l-286.87 0 -54.73 132.4 -146.53 0 275.4 -617.88 141.23 0 276.28 617.88 -150.06 0 -54.72 -132.4zm-45.02 -108.57l-97.98 -236.55 -97.97 236.55 195.95 0z"/>
  <polygon id="3" class="fil0" points="5318.41,677.58 5050.96,1295.46 4909.73,1295.46 4643.16,677.58 4797.64,677.58 4985.64,1118.92 5176.3,677.58 "/>
  <path id="4" class="fil0" d="M5823.3 974.17c35.31,11.18 62.96,29.87 82.97,56.05 20.01,26.18 30.01,58.4 30.01,96.65 0,54.14 -21.04,95.77 -63.11,124.9 -42.07,29.13 -103.42,43.69 -184.03,43.69l-319.53 0 0 -617.88 301.88 0c75.32,0 133.13,14.42 173.45,43.25 40.31,28.84 60.46,67.97 60.46,117.4 0,30.01 -7.21,56.79 -21.63,80.32 -14.42,23.54 -34.57,42.08 -60.46,55.61zm-311.59 -188.9l0 145.64 142.11 0c35.31,0 62.08,-6.18 80.33,-18.54 18.24,-12.36 27.36,-30.6 27.36,-54.73 0,-24.13 -9.12,-42.22 -27.36,-54.28 -18.24,-12.06 -45.02,-18.1 -80.33,-18.1l-142.11 0zm166.83 402.5c37.66,0 66.05,-6.18 85.18,-18.54 19.13,-12.36 28.69,-31.48 28.69,-57.38 0,-51.19 -37.96,-76.79 -113.87,-76.79l-166.83 0 0 152.7 166.83 0z"/>
  <path id="5" class="fil0" d="M6451.77 1163.06l-286.87 0 -54.73 132.4 -146.53 0 275.4 -617.88 141.23 0 276.28 617.88 -150.06 0 -54.72 -132.4zm-45.02 -108.57l-97.98 -236.55 -97.97 236.55 195.95 0z"/>
  <path class="fil1" d="M1281.52 7.91c65.99,-21.94 135.72,4.42 187.42,46.6 262.08,202.22 511.58,420.25 775.35,620.25 109.53,88.44 218.54,177.73 329.43,264.8 30.61,25.34 64.62,49.33 84.52,84.87 13.27,43.36 6.8,111.73 -48.81,119.22 -97.79,10.71 -196.6,-0.85 -294.73,7.49 8,248.98 -65.31,504.42 -228.07,696.27 -240.65,304.08 -668.37,437.25 -1039.98,328.07 -208.34,-65.14 -405.28,-187.08 -530.63,-369.06 -81.12,-111.74 -137.76,-240.14 -170.24,-374.15 -22.45,-91.84 -18.54,-186.91 -22.28,-280.62 -85.2,-6.46 -170.92,-0.17 -256.13,-5.95 -64.62,-3.57 -88.77,-96.77 -45.75,-139.12 99.32,-106.46 228.07,-178.91 333.85,-278.06 222.62,-179.94 447.11,-357.49 670.42,-536.57 82.66,-64.46 156.29,-144.9 255.61,-184.02zm-568.2 1143.22c-9.52,164.8 32.83,339.29 149.67,461.06 112.76,132.99 285.2,212.75 459.69,210.54 190.31,0.85 373.65,-101.36 484.19,-254.42 92.69,-117.35 123.64,-270.58 116.5,-417.35 -65.14,-3.74 -130.62,-4.08 -195.92,-1.87 -0.34,87.42 -4.93,178.75 -48.64,256.81 -53.23,90.47 -135.88,165.99 -235.55,201.7 -129.59,36.57 -276.87,13.6 -381.29,-74.66 -118.2,-87.08 -160.55,-241.33 -153.57,-382.32 -64.96,-3.91 -130.1,-3.57 -195.07,0.51zm1223.83 -946.62c49.83,-77.21 157.66,-65.13 237.59,-63.61 65.14,-3.74 127.04,46.43 132.99,112.08 11.91,101.53 8.68,204.93 -5.61,306.29 -104.25,-75.85 -197.11,-166.16 -304.09,-238.27 -35.21,-27.73 -94.39,-65.48 -60.89,-116.5z"/>
  <path class="fil2" d="M3768.28 1441.25c23.14,0 40.55,4.21 52.02,12.43 11.67,8.22 17.4,20.65 17.4,37.67 0,21.99 -8.22,43.41 -24.67,64.07 -15.68,19.51 -39.21,35.19 -70.57,47.24 -17.02,6.31 -31.56,9.57 -43.03,9.57 -15.68,0 -23.53,-7.08 -23.53,-21.04 0,-9.38 4.4,-16.45 13.39,-21.42 2.3,-1.15 14.92,-4.4 38.06,-9.57 13.77,-3.06 26.39,-9.56 37.87,-19.69 10.13,-8.61 15.11,-17.98 15.11,-28.12 0,-7.84 -2.3,-13.58 -6.7,-17.4 -4.4,-3.63 -11.09,-5.54 -20.08,-5.54 -21.61,0 -45.33,8.8 -71.53,26.2 -30.03,19.89 -45.14,43.22 -45.14,70.38 0,19.5 9.75,43.6 29.26,72.67 21.8,31.75 32.7,58.52 32.7,80.52 0,32.89 -14.53,58.52 -43.6,77.07 -17.79,11.67 -38.06,17.4 -60.81,17.4 -35.77,0 -62.92,-12.81 -81.47,-38.25 -13,-18.36 -19.51,-39.97 -19.51,-65.02 0,-29.06 7.46,-53.54 22.18,-73.24 9.57,-13.2 19.51,-19.7 30.03,-19.7 9.18,0 13.96,3.82 13.96,11.28 0,2.87 -1.72,7.46 -5.16,13.39 -8.61,16.07 -12.81,35 -12.81,56.61 0,18.36 6.5,33.85 19.51,46.47 11.67,11.28 24.86,16.83 39.58,16.83 14.53,0 26.01,-4.78 34.23,-14.53 6.7,-8.22 9.94,-18.74 9.94,-31.36 0,-15.68 -8.8,-35.95 -26.58,-61 -24.29,-34.23 -36.53,-65.41 -36.53,-93.52 0,-37.29 20.27,-70.18 61.01,-98.87 39.59,-27.73 81.46,-41.5 125.45,-41.5z"/>
  <path id="1" class="fil2" d="M4192.26 1628.86c36.53,-39.2 78.8,-77.45 126.61,-114.93 17.21,-13.39 35.57,-26.01 54.89,-37.68 9.75,-5.74 15.87,-8.6 18.55,-8.6 5.54,0 11.09,4.01 16.83,12.24 3.25,4.4 4.97,8.6 4.97,12.24 0,6.69 -7.08,15.87 -21.23,27.34 -37.87,30.22 -56.8,52.97 -56.8,68.28 0,8.6 4.78,12.81 14.53,12.81 15.87,0 43.41,-13.2 82.23,-39.78 6.7,-4.4 12.24,-6.69 16.64,-6.69 3.06,0 5.93,1.53 8.99,4.59 3.25,3.25 4.97,6.89 4.97,10.52 0,11.28 -15.68,28.5 -46.86,51.83 -32.7,24.67 -63.87,37.1 -93.32,37.1 -11.86,0 -22.76,-3.25 -32.89,-9.56 -8.61,-5.16 -12.81,-14.53 -12.81,-27.92 0,-9.37 4.02,-20.08 11.86,-31.94 -29.64,20.85 -64.44,56.8 -104.61,107.67 -23.14,31.36 -46.09,69.99 -69.04,116.08 -8.61,17.21 -19.31,25.82 -31.94,25.82 -13.96,0 -20.84,-6.5 -20.84,-19.5 0,-12.81 10.9,-46.85 32.51,-102.12 32.32,-82.04 65.98,-145.73 101.17,-190.86 21.61,-28.11 39.78,-42.07 54.31,-42.07 4.97,0 9.37,1.53 13.58,4.4 4.79,3.82 7.27,8.41 7.27,14.15 0,5.54 -3.83,13.39 -11.28,23.52 -1.34,1.72 -11.29,14.35 -29.64,37.49 -16.83,21.99 -29.64,43.98 -38.63,65.59z"/>
  <path id="2" class="fil2" d="M4605.34 1720.08c-12.24,21.8 -24.48,39.97 -36.33,55.07 -23.52,29.07 -46.85,43.6 -69.99,43.6 -20.27,0 -35.95,-9.56 -47.05,-28.68 -7.08,-12.24 -10.71,-26.77 -10.71,-43.6 0,-41.5 13,-87.21 39.2,-137.31 29.26,-55.84 64.45,-98.49 105.56,-128.51 26.77,-19.31 52.78,-29.07 77.84,-29.07 15.68,0 28.87,4.78 39.39,14.53 8.99,8.61 13.39,18.36 13.39,29.26 0,8.22 -3.25,19.7 -9.56,34.23 5.74,7.84 8.41,14.72 8.41,20.85 0,7.84 -5.16,20.65 -15.68,38.63 -10.71,18.36 -21.62,42.65 -32.32,73.05 -11.67,32.13 -17.4,57.95 -17.4,77.45 0,15.68 4.59,28.5 13.96,38.63 2.68,2.68 10.33,6.89 22.95,13.01 9.37,4.4 14.15,12.24 14.15,23.52 0,7.08 -2.68,12.81 -7.84,17.4 -5.73,4.78 -12.24,7.26 -19.69,7.26 -20.27,0 -37.68,-9.18 -52.4,-27.34 -12.05,-14.53 -18.17,-32.9 -18.17,-54.89 0,-7.45 0.77,-19.89 2.3,-37.1zm70.19 -184.74c-4.4,-8.22 -9.37,-14.35 -14.53,-18.17 -5.35,-4.02 -10.9,-5.93 -16.83,-5.93 -28.5,0 -59.48,24.86 -92.75,74.78 -36.72,55.07 -55.08,101.55 -55.08,139.8 0,9.37 1.72,16.45 5.36,21.41 3.44,4.78 8.8,7.27 16.06,7.27 17.98,0 38.82,-19.13 62.92,-57.38 13.39,-20.84 30.03,-51.83 49.92,-92.56 13.19,-26.58 22.76,-44.17 28.68,-52.97 3.06,-4.4 8.41,-9.75 16.26,-16.26z"/>
  <path id="3" class="fil2" d="M4964.49 1486.19c37.29,-78.03 72.67,-145.91 105.95,-203.86 32.13,-56.04 53.93,-91.41 65.59,-105.95 12.62,-16.07 24.67,-24.1 35.77,-24.1 5.93,0 11.48,2.49 16.26,7.27 4.59,4.97 6.69,10.13 6.69,15.68 0,8.61 -6.31,23.14 -18.93,43.22 -54.31,87.4 -103.84,176.13 -149.17,266.21 -52.97,104.61 -79.56,183.21 -79.56,235.42 0,21.23 4.21,38.06 12.43,50.29 1.34,2.68 8.03,8.61 20.08,17.98 2.3,1.72 3.44,5.54 3.44,11.09 0,7.46 -3.06,14.34 -8.8,20.46 -5.74,6.12 -12.24,9.18 -19.31,9.18 -8.61,0 -18.17,-5.16 -28.69,-15.3 -14.91,-14.91 -23.91,-32.13 -26.77,-51.44 -1.15,-8.22 -2.49,-23.71 -4.02,-46.09 -39.21,70.57 -76.31,105.95 -111.88,105.95 -20.46,0 -36.72,-11.67 -49.15,-34.81 -8.22,-15.3 -12.24,-32.51 -12.24,-52.02 0,-58.14 21.42,-116.85 64.07,-175.75 42.46,-58.33 87.97,-87.4 136.74,-87.4 13.39,0 27.35,4.59 41.5,13.96zm-18.93 46.09c-10.14,-7.08 -18.94,-10.71 -26.4,-10.71 -31.55,0 -61.39,19.31 -89.69,57.75 -37.1,50.29 -55.65,98.68 -55.65,145.35 0,5.73 1.15,10.9 3.44,15.87 4.4,9.37 11.28,13.96 20.27,13.96 13.19,0 29.06,-12.62 48,-38.06 25.05,-33.65 48.38,-73.24 69.99,-119.14 7.46,-15.68 14.72,-31.36 21.99,-47.05 0,0 1.53,-3.63 4.78,-10.71l3.25 -7.27z"/>
  <path id="4" class="fil2" d="M5252.69 1451.58c30.41,0 45.71,18.74 45.71,56.03 0,49.53 -22.95,112.45 -68.66,188.57 -49.92,82.42 -98.1,123.73 -144.58,123.73 -21.61,0 -37.48,-10.13 -47.43,-30.22 -5.16,-10.13 -7.84,-22.18 -7.84,-36.33 0,-47.81 16.45,-99.64 49.15,-155.67 30.41,-51.83 66.36,-92.18 107.67,-120.87 24.29,-16.83 46.28,-25.24 65.98,-25.24zm-57.94 211.7c-9.37,-7.65 -13.96,-13.39 -13.96,-17.4 0,-3.06 5.93,-11.28 17.79,-24.67 33.65,-37.87 50.48,-68.27 50.48,-91.41 0,-3.06 -0.95,-5.93 -2.87,-8.99 -2.87,-5.55 -7.65,-8.42 -13.96,-8.42 -11.86,0 -29.45,11.67 -52.59,34.81 -29.83,29.83 -52.59,60.62 -68.27,92.37 -18.36,36.33 -27.54,66.36 -27.54,90.26 0,6.51 1.72,12.05 4.97,16.83 4.97,6.7 11.09,10.14 18.55,10.14 17.98,0 37.1,-13.39 57.75,-40.36 8.99,-11.28 16.26,-22.76 21.8,-34.8 5.54,-11.86 8.22,-18.17 7.84,-18.36z"/>
  <path id="5" class="fil2" d="M5560.59 1441.25c23.14,0 40.55,4.21 52.02,12.43 11.67,8.22 17.4,20.65 17.4,37.67 0,21.99 -8.22,43.41 -24.67,64.07 -15.68,19.51 -39.21,35.19 -70.57,47.24 -17.02,6.31 -31.56,9.57 -43.03,9.57 -15.68,0 -23.53,-7.08 -23.53,-21.04 0,-9.38 4.4,-16.45 13.39,-21.42 2.3,-1.15 14.92,-4.4 38.06,-9.57 13.77,-3.06 26.39,-9.56 37.87,-19.69 10.13,-8.61 15.11,-17.98 15.11,-28.12 0,-7.84 -2.3,-13.58 -6.7,-17.4 -4.4,-3.63 -11.09,-5.54 -20.08,-5.54 -21.61,0 -45.33,8.8 -71.53,26.2 -30.03,19.89 -45.14,43.22 -45.14,70.38 0,19.5 9.75,43.6 29.26,72.67 21.8,31.75 32.7,58.52 32.7,80.52 0,32.89 -14.53,58.52 -43.6,77.07 -17.79,11.67 -38.06,17.4 -60.81,17.4 -35.77,0 -62.92,-12.81 -81.47,-38.25 -13,-18.36 -19.51,-39.97 -19.51,-65.02 0,-29.06 7.46,-53.54 22.18,-73.24 9.57,-13.2 19.51,-19.7 30.03,-19.7 9.18,0 13.96,3.82 13.96,11.28 0,2.87 -1.72,7.46 -5.16,13.39 -8.61,16.07 -12.81,35 -12.81,56.61 0,18.36 6.5,33.85 19.51,46.47 11.67,11.28 24.86,16.83 39.58,16.83 14.53,0 26.01,-4.78 34.23,-14.53 6.7,-8.22 9.94,-18.74 9.94,-31.36 0,-15.68 -8.8,-35.95 -26.58,-61 -24.29,-34.23 -36.53,-65.41 -36.53,-93.52 0,-37.29 20.27,-70.18 61.01,-98.87 39.59,-27.73 81.46,-41.5 125.45,-41.5z"/>
  <path id="6" class="fil2" d="M5801.17 1451.96c-24.29,37.67 -47.05,80.13 -67.7,126.79 -29.64,66.75 -44.56,116.47 -44.56,149.36 0,9.38 1.92,16.45 5.93,21.42 3.82,4.78 9.75,7.27 17.59,7.27 18.74,0 41.5,-17.59 68.08,-52.6 16.82,-21.8 31.74,-43.41 44.94,-65.02 7.08,-12.43 14.91,-18.55 23.14,-18.55 4.97,0 9.18,1.72 12.43,4.97 3.06,3.44 4.59,6.88 4.59,10.13 0,13.77 -18.17,44.75 -54.51,92.56 -43.41,57.18 -83,85.87 -118.95,85.87 -19.13,0 -35,-8.8 -47.62,-26.39 -7.84,-11.09 -11.86,-27.16 -11.86,-47.62 0,-45.33 13.2,-97.92 39.59,-158.15 6.31,-14.92 24.09,-51.06 52.97,-108.24 -10.14,2.87 -17.98,4.21 -23.33,4.21 -8.03,0 -14.92,-1.91 -21.04,-5.54 -8.42,-5.35 -12.62,-11.86 -12.62,-19.7 0,-9.37 5.35,-16.83 16.26,-22.37 3.06,-1.53 17.02,-3.83 41.69,-7.27 8.99,-1.53 22.18,-4.97 39.4,-10.52 13.2,-23.72 34.81,-55.65 64.64,-96 16.45,-22.37 27.92,-37.1 34.23,-43.79 8.99,-9.37 16.82,-13.96 23.52,-13.96 4.97,0 9.75,2.68 14.53,7.84 4.59,4.78 6.89,9.75 6.89,14.53 0,9.75 -10.52,28.87 -31.36,57.56 -13.96,18.74 -24.09,33.85 -30.98,45.33 40.92,-10.9 70.38,-16.26 87.97,-16.26 20.27,0 30.41,8.61 30.41,25.82 0,8.6 -3.44,14.91 -10.52,19.12 -3.83,2.11 -13.39,4.02 -29.07,5.55 -6.31,-0.38 -34.23,6.69 -83.95,20.85 -13.77,4.21 -27.35,8.41 -40.73,12.81z"/>
  <path id="7" class="fil2" d="M6022.44 1476.82c6.31,0 11.48,2.49 15.68,7.27 2.87,4.21 4.4,8.22 4.4,12.43 0,6.7 -5.35,17.79 -16.26,33.66 -38.82,60.05 -66.36,109.77 -82.81,148.59 -17.4,39.97 -32.89,81.09 -46.28,123.35 -5.93,18.75 -15.3,28.12 -27.92,28.12 -7.46,0 -13.39,-3.06 -17.98,-8.99 -4.02,-4.78 -6.12,-10.13 -6.12,-15.68 0,-11.28 11.86,-48.57 35.76,-112.25 18.55,-50.11 48.77,-105.37 90.65,-166 13.39,-19.89 23.33,-33.09 30.21,-39.78 6.7,-7.08 13.58,-10.71 20.66,-10.71zm145.15 -239.81c6.31,0 11.48,2.48 15.68,7.26 4.02,4.21 6.12,8.42 6.12,13.01 0,9.18 -16.82,34.61 -50.29,76.11 -17.4,21.8 -29.83,35.77 -36.91,42.07 -7.65,7.08 -14.92,10.71 -21.61,10.71 -11.67,0 -17.4,-6.5 -17.4,-19.7 0,-8.99 7.08,-21.8 21.23,-38.63 10.52,-10.9 27.35,-33.09 50.87,-66.75 11.47,-16.06 22.37,-24.09 32.32,-24.09z"/>
 </g>
</svg>
